<svg xmlns="http://www.w3.org/2000/svg" width="17" height="17">
    <style type="text/css">
    	.st0{opacity:0.95;fill:url(#SVGID_1_);}
    	.st1{fill:url(#SVGID_2_);}
    	.st2{opacity:0.1;}
    	.st3{fill:url(#SVGID_3_);}
    	.st4{fill:url(#SVGID_4_);}
    	.st5{fill:#E54F1A;}
    	.st6{fill:#F2661B;}
    	.st7{fill:#F6F8F7;}
    	.st8{fill:#0072BE;}
    	.st9{fill:#1D8DD0;}
    	.st10{fill:#E5E5E5;}
    	.st11{fill:#092A42;}
    	.st12{fill:#F2F2F2;}
    </style>
    <rect x="0" y="0" class="st8" width="17" height="17"/>
    <path class="st9" d="M8.4,1.3l6-0.1c0,0,0.2,0.2,0.1,0.7c-0.1,0.5-1.2,11.8-1.2,11.8l-4.5,1.4c0,0-0.5,0.1-0.5-0.2 C8.3,14.2,8.4,1.3,8.4,1.3z"/>
    <polygon class="st7" points="4.4,8.5 11.1,8.6 10.9,11.2 8.7,11.8 6.4,11.3 6.2,9.8 4.4,9.7 4.7,12.2 8.7,13.5 12.5,12.3 13,6.6 6.1,6.6 4.4,6.6 "/>
    <polygon class="st7" points="4.1,2.8 13.4,2.7 13.1,4.7 4.3,4.6 "/>
    <polygon class="st10" points="8.8,4.6 13.1,4.7 8.9,6.6 4.4,6.6 "/>
</svg>
