<?xml version="1.0" encoding="utf-8"?>
<!-- Generator: Adobe Illustrator 18.0.0, SVG Export Plug-In . SVG Version: 6.00 Build 0)  -->
<!DOCTYPE svg PUBLIC "-//W3C//DTD SVG 1.1//EN" "http://www.w3.org/Graphics/SVG/1.1/DTD/svg11.dtd">
<svg version="1.1" id="Layer_1" xmlns="http://www.w3.org/2000/svg" xmlns:xlink="http://www.w3.org/1999/xlink" x="0px" y="0px"
	 viewBox="0 0 17 17" style="enable-background:new 0 0 17 17;" xml:space="preserve">
<style type="text/css">
	.st0{opacity:0.95;fill:url(#SVGID_1_);}
	.st1{fill:url(#SVGID_2_);}
	.st2{opacity:0.1;}
	.st3{fill:url(#SVGID_3_);}
	.st4{fill:url(#SVGID_4_);}
	.st5{fill:#E54F1A;}
	.st6{fill:#F2661B;}
	.st7{fill:#F6F8F7;}
	.st8{fill:#0072BE;}
	.st9{fill:#1D8DD0;}
	.st10{fill:#E5E5E5;}
	.st11{fill:#092A42;}
	.st12{fill:#F2F2F2;}
</style>
<rect x="0" y="-0.1" class="st5" width="17" height="16.9"/>
<path class="st6" d="M8.5,1.3l6-0.1c0,0,0.2,0.2,0.1,0.7s-1.2,11.8-1.2,11.8l-4.5,1.4c0,0-0.5,0.1-0.5-0.2C8.4,14.2,8.5,1.3,8.5,1.3
	z"/>
<polygon class="st7" points="13.3,2.8 3.7,2.8 4.2,8.6 10.9,8.7 10.7,11.2 8.5,11.9 6.3,11.3 6.2,10.1 4.4,10 4.6,12.3 8.5,13.6 
	12.3,12.4 12.8,6.7 5.9,6.7 5.9,5 13,5 "/>
</svg>
