<svg xmlns="http://www.w3.org/2000/svg" width="17" height="17">
   <style type="text/css">
   	.st0{opacity:0.95;fill:url(#SVGID_1_);}
   	.st1{fill:url(#SVGID_2_);}
   	.st2{opacity:0.1;}
   	.st3{fill:url(#SVGID_3_);}
   	.st4{fill:url(#SVGID_4_);}
   	.st5{fill:#E54F1A;}
   	.st6{fill:#F2661B;}
   	.st7{fill:#F6F8F7;}
   	.st8{fill:#0072BE;}
   	.st9{fill:#1D8DD0;}
   	.st10{fill:#E5E5E5;}
   	.st11{fill:#092A42;}
   	.st12{fill:#F2F2F2;}
   </style>
   <rect x="0.1" y="0.1" class="st11" width="17.0" height="17"/>
   <g>
   	<path class="st12" d="M4.5,4.3h5.2c1.2,0,2.1,0.2,2.7,0.7s0.9,1,0.9,1.7S13,7.9,12.4,8.3C11.6,8.8,10.7,9,9.5,9H7.7v3
   		c0,0.2,0,0.3,0.1,0.4c0.1,0.1,0.3,0.1,0.5,0.1h1.2v0.4h-5v-0.4h1.1c0.2,0,0.4,0,0.5-0.1c0.1-0.1,0.1-0.2,0.1-0.3V5.2
   		C6.2,5,6.1,4.9,6,4.8C5.8,4.8,5.6,4.7,5.3,4.7H4.5V4.3z M7.7,8.6h1.4c0.9,0,1.5-0.2,1.9-0.5c0.4-0.3,0.6-0.8,0.6-1.5
   		c0-0.5-0.1-0.9-0.3-1.1c-0.2-0.3-0.4-0.5-0.8-0.6S9.7,4.7,8.9,4.7c-0.5,0-0.9,0-1,0.1C7.7,4.9,7.7,5,7.7,5.2V8.6z"/>
   </g>
</svg>